<?xml version="1.0" encoding="UTF-8"?>
<!DOCTYPE svg PUBLIC "-//W3C//DTD SVG 1.1//EN" "http://www.w3.org/Graphics/SVG/1.1/DTD/svg11.dtd">
<svg xmlns="http://www.w3.org/2000/svg" version="1.1" width="13px" height="25px" style="shape-rendering:geometricPrecision; text-rendering:geometricPrecision; image-rendering:optimizeQuality; fill-rule:evenodd; clip-rule:evenodd" xmlns:xlink="http://www.w3.org/1999/xlink">
<g><path style="opacity:0.858" fill="#fefffe" d="M 5.5,-0.5 C 7.83333,-0.5 10.1667,-0.5 12.5,-0.5C 12.5,1.16667 12.5,2.83333 12.5,4.5C 11.1667,4.5 9.83333,4.5 8.5,4.5C 8.5,5.83333 8.5,7.16667 8.5,8.5C 9.83333,8.5 11.1667,8.5 12.5,8.5C 12.5,10.1667 12.5,11.8333 12.5,13.5C 11.1667,13.5 9.83333,13.5 8.5,13.5C 8.5,17.1667 8.5,20.8333 8.5,24.5C 6.83333,24.5 5.16667,24.5 3.5,24.5C 3.5,20.8333 3.5,17.1667 3.5,13.5C 2.16667,13.5 0.833333,13.5 -0.5,13.5C -0.5,11.8333 -0.5,10.1667 -0.5,8.5C 0.833333,8.5 2.16667,8.5 3.5,8.5C 3.06525,5.16248 3.73192,2.16248 5.5,-0.5 Z"/></g>
</svg>
