<?xml version="1.0" encoding="UTF-8"?>
<!DOCTYPE svg PUBLIC "-//W3C//DTD SVG 1.1//EN" "http://www.w3.org/Graphics/SVG/1.1/DTD/svg11.dtd">
<svg xmlns="http://www.w3.org/2000/svg" version="1.1" width="20px" height="24px" style="shape-rendering:geometricPrecision; text-rendering:geometricPrecision; image-rendering:optimizeQuality; fill-rule:evenodd; clip-rule:evenodd" xmlns:xlink="http://www.w3.org/1999/xlink">
<g><path style="opacity:0.736" fill="#fefffe" d="M 4.5,-0.5 C 7.83333,-0.5 11.1667,-0.5 14.5,-0.5C 16.5,0.833333 18.1667,2.5 19.5,4.5C 19.5,6.83333 19.5,9.16667 19.5,11.5C 17.2693,16.4099 13.6026,18.0765 8.5,16.5C 7.2172,18.7301 6.2172,21.0634 5.5,23.5C 4.83333,23.5 4.16667,23.5 3.5,23.5C 3.31872,20.6029 3.65205,17.7695 4.5,15C 2.52493,14.965 0.858259,13.7983 -0.5,11.5C -0.5,9.16667 -0.5,6.83333 -0.5,4.5C 0.833333,2.5 2.5,0.833333 4.5,-0.5 Z M 6.5,2.5 C 12.7839,1.61892 15.6172,4.28559 15,10.5C 14.3333,12.5 13,13.8333 11,14.5C 10.0565,13.737 9.55647,12.737 9.5,11.5C 10.6145,9.26749 10.6145,7.10082 9.5,5C 6.45191,4.36545 4.78524,5.69879 4.5,9C 4.73546,9.87318 5.0688,10.7065 5.5,11.5C 5.15431,12.6956 4.65431,12.6956 4,11.5C 2.92712,7.90027 3.76045,4.90027 6.5,2.5 Z"/></g>
</svg>
