<?xml version="1.0" encoding="UTF-8"?>
<!DOCTYPE svg PUBLIC "-//W3C//DTD SVG 1.1//EN" "http://www.w3.org/Graphics/SVG/1.1/DTD/svg11.dtd">
<svg xmlns="http://www.w3.org/2000/svg" version="1.1" width="24px" height="24px" style="shape-rendering:geometricPrecision; text-rendering:geometricPrecision; image-rendering:optimizeQuality; fill-rule:evenodd; clip-rule:evenodd" xmlns:xlink="http://www.w3.org/1999/xlink">
<g><path style="opacity:0.714" fill="#fefffe" d="M 2.5,-0.5 C 8.5,-0.5 14.5,-0.5 20.5,-0.5C 21.1667,0.833333 22.1667,1.83333 23.5,2.5C 23.5,8.5 23.5,14.5 23.5,20.5C 22.1667,21.1667 21.1667,22.1667 20.5,23.5C 14.5,23.5 8.5,23.5 2.5,23.5C 1.83333,22.1667 0.833333,21.1667 -0.5,20.5C -0.5,14.5 -0.5,8.5 -0.5,2.5C 0.833333,1.83333 1.83333,0.833333 2.5,-0.5 Z M 4.5,2.5 C 9.76162,2.19532 14.9283,2.52865 20,3.5C 20.8056,9.08375 20.6389,14.5838 19.5,20C 14.1357,20.8295 8.80234,20.6628 3.5,19.5C 1.87448,13.5902 2.20781,7.92357 4.5,2.5 Z"/></g>
</svg>
